
<svg width="512" height="512" xmlns="http://www.w3.org/2000/svg" viewBox="0 0 512 512">
  <defs>
    <linearGradient id="mainGradient" x1="0%" y1="0%" x2="100%" y2="100%">
      <stop offset="0%" style="stop-color:#4A90E2;stop-opacity:1" />
      <stop offset="100%" style="stop-color:#357ABD;stop-opacity:1" />
    </linearGradient>
    <linearGradient id="accentGradient" x1="0%" y1="0%" x2="100%" y2="100%">
      <stop offset="0%" style="stop-color:#F8FAFC;stop-opacity:1" />
      <stop offset="100%" style="stop-color:#E2E8F0;stop-opacity:1" />
    </linearGradient>
    <linearGradient id="highlightGradient" x1="0%" y1="0%" x2="100%" y2="100%">
      <stop offset="0%" style="stop-color:#60A5FA;stop-opacity:1" />
      <stop offset="100%" style="stop-color:#3B82F6;stop-opacity:1" />
    </linearGradient>
  </defs>
  
  <rect x="56" y="56" width="400" height="400" rx="80" ry="80" fill="url(#mainGradient)" stroke="#2C5AA0" stroke-width="4"/>
  <rect x="120" y="180" width="272" height="60" rx="12" ry="12" fill="url(#accentGradient)" stroke="#4A90E2" stroke-width="3"/>
  <circle cx="160" cy="210" r="18" fill="url(#highlightGradient)"/>
  <circle cx="210" cy="210" r="18" fill="url(#highlightGradient)"/>
  <circle cx="260" cy="210" r="18" fill="url(#highlightGradient)"/>
  <circle cx="310" cy="210" r="18" fill="url(#highlightGradient)"/>
  <circle cx="360" cy="210" r="18" fill="#E2E8F0"/>
  <circle cx="410" cy="210" r="18" fill="#E2E8F0"/>
  <text x="160" y="218" font-family="SF Pro Display, -apple-system, sans-serif" font-size="24" font-weight="bold" text-anchor="middle" fill="#FFFFFF">8</text>
  <text x="210" y="218" font-family="SF Pro Display, -apple-system, sans-serif" font-size="24" font-weight="bold" text-anchor="middle" fill="#FFFFFF">1</text>
  <text x="260" y="218" font-family="SF Pro Display, -apple-system, sans-serif" font-size="24" font-weight="bold" text-anchor="middle" fill="#FFFFFF">6</text>
  <text x="310" y="218" font-family="SF Pro Display, -apple-system, sans-serif" font-size="24" font-weight="bold" text-anchor="middle" fill="#FFFFFF">3</text>
  <rect x="140" y="280" width="232" height="36" rx="18" ry="18" fill="url(#highlightGradient)" opacity="0.9"/>
  <text x="256" y="305" font-family="SF Pro Display, -apple-system, sans-serif" font-size="20" font-weight="bold" text-anchor="middle" fill="#FFFFFF">MASTER</text>
  <circle cx="256" cy="350" r="40" fill="none" stroke="url(#accentGradient)" stroke-width="2" opacity="0.4"/>
  <circle cx="256" cy="350" r="60" fill="none" stroke="url(#accentGradient)" stroke-width="1" opacity="0.3"/>
  <rect x="240" y="340" width="32" height="20" rx="4" ry="4" fill="url(#accentGradient)" opacity="0.7"/>
  <path d="M 248 340 L 248 334 Q 248 328 256 328 Q 264 328 264 334 L 264 340" stroke="url(#accentGradient)" stroke-width="3" fill="none" opacity="0.7"/>
</svg>
